<svg width="150" height="309" viewBox="0 0 150 309" fill="none" xmlns="http://www.w3.org/2000/svg">
<path d="M114.165 138.015C113.539 137.998 112.994 137.584 112.839 136.954C102.874 96.5682 57.3503 71.4081 56.8949 71.1596C56.2275 70.7858 55.9637 69.9455 56.3205 69.2637C56.6773 68.5819 57.534 68.3329 58.2159 68.69C58.6879 68.9529 105.282 94.661 115.538 136.26C115.733 137.012 115.256 137.765 114.519 137.943C114.414 137.997 114.289 138.006 114.165 138.015Z" fill="#4043AF"/>
<path d="M63.7093 73.8103C63.7093 73.8103 64.385 40.0632 22.4722 39.7286C21.4588 39.7205 34.6706 48.0754 33.6068 48.1073C32.3988 48.1435 23.8184 40.7098 15.6331 39.9533C7.44777 39.1967 4.30415 41.2073 -2.325 42.6768C-2.325 42.6768 9.54912 47.5092 21.357 65.869C26.9839 74.6107 38.2543 78.8293 43.5656 78.9194C48.8769 79.0094 54.1866 75.9806 54.1866 75.9806C54.9189 75.9293 49.2319 80.3634 49.9367 80.2441C57.7612 78.9206 63.7093 73.8103 63.7093 73.8103Z" fill="#FF6231"/>
<path d="M113.775 132.792C113.713 132.798 113.648 132.774 113.586 132.78C112.823 132.668 112.283 131.971 112.394 131.208C117.873 90.1608 83.8356 64.3841 83.4804 64.1222C82.8553 63.6681 82.7198 62.7891 83.1906 62.1781C83.6614 61.5671 84.5403 61.4319 85.1344 61.8891C85.4896 62.151 120.849 88.9227 115.126 131.592C115.053 132.272 114.463 132.786 113.775 132.792Z" fill="#4043AF"/>
<path d="M89.2963 66.8764C89.2963 66.8764 95.2602 49.2863 79.3369 39.2578C78.7785 38.9062 84.3478 48.7802 84.3478 48.7802C84.3478 48.7802 78.514 40.3212 75.4811 38.1307C72.4481 35.9401 70.3118 35.1177 66.6743 34.2897C65.9525 34.1254 71.1473 40.3013 70.3824 40.1571C70.3824 40.1571 66.495 35.6095 63.1743 33.6002C59.8536 31.5908 53.405 32.4273 47.3151 32.4653C47.3151 32.4653 55.8543 37.2891 61.0358 52.6807C67.6338 72.1898 89.2963 66.8764 89.2963 66.8764Z" fill="#BD93D8"/>
<path d="M113.775 132.792C113.369 132.801 112.958 132.608 112.673 132.261C100.591 117.092 83.1218 113.566 82.9466 113.537C82.1807 113.395 81.6996 112.66 81.8417 111.894C81.9837 111.128 82.7321 110.63 83.4841 110.79C84.25 110.932 102.132 114.51 114.862 130.522C115.344 131.116 115.246 132.002 114.652 132.485C114.375 132.685 114.071 132.778 113.775 132.792Z" fill="#4043AF"/>
<path d="M86.8544 113.363C86.8544 113.363 80.5206 120.046 70.1698 121.732C69.5675 121.83 73.8668 118.174 73.8668 118.174C73.8668 118.174 67.0442 121.667 55.4334 120.963C43.8225 120.258 37.549 115.514 19.3158 85.6378C19.3158 85.6378 25.8785 87.5768 33.917 89.9762C41.9556 92.3756 48.7828 98.2392 48.7828 98.2392C48.7828 98.2392 40.9141 89.1256 41.6364 89.2002C46.993 89.7539 49.8594 91.1255 56.6836 89.9596C83.9755 85.2958 86.8544 113.363 86.8544 113.363Z" fill="#4043AF"/>
<path d="M0.750244 118.827C0.750244 118.827 6.0597 119.659 14.378 121.433C14.9007 121.545 15.1796 138.868 15.1796 138.868C15.1796 138.868 17.04 122.011 17.5845 122.132C20.0664 122.685 22.7545 123.309 25.6008 124.009C26.0243 124.113 23.9976 144.479 23.9976 144.479C23.9976 144.479 27.6286 124.513 28.0057 124.608C31.0718 125.384 34.2966 126.241 37.6253 127.184C38.1571 127.335 32.8155 151.694 32.8155 151.694C32.8155 151.694 40.2952 127.952 40.8318 128.11C44.7525 129.263 48.789 130.532 52.8563 131.919C53.0429 131.983 50.9508 138.881 48.856 145.788L44.84 159.71C44.84 159.71 54.8332 132.602 55.2612 132.752C59.5539 134.263 63.8623 135.907 68.0873 137.688C68.3845 137.814 56.8645 169.33 56.8645 169.33C56.8645 169.33 69.9888 138.501 70.4922 138.721C75.6169 140.965 80.5887 143.416 85.2262 146.083C85.6621 146.333 67.2857 179.751 67.2857 179.751C67.2857 179.751 87.5988 147.482 88.1281 147.808C93.9701 151.399 99.1805 155.36 103.359 159.71C103.863 160.234 76.9053 190.172 76.9053 190.172C76.9053 190.172 106.005 162.661 106.566 163.357C111.185 169.088 114.798 175.782 117.611 182.958C117.86 183.592 85.2262 206.205 85.2262 206.205C85.2262 206.205 118.843 186.264 119.084 186.966C121.355 193.561 123.01 200.473 124.202 207.351C124.321 208.038 96.1444 223.841 96.1444 223.841C96.1444 223.841 124.713 210.481 124.794 211.015C125.706 217.079 126.275 223.068 126.606 228.739C126.652 229.518 108.169 239.874 108.169 239.874C108.169 239.874 126.803 232.667 126.833 233.46C127.534 252.148 125.805 266.327 125.805 266.327C125.805 266.327 111.285 264.255 92.9379 258.523C91.8811 258.193 94.0181 234.617 92.9379 234.262C91.8787 233.914 87.6026 256.788 86.5248 256.416C81.3029 254.613 75.8857 252.522 70.4922 250.112C69.4218 249.633 77.972 217.13 76.9053 216.626C76.1019 216.247 65.6804 247.872 64.8808 247.478C58.7622 244.462 52.7743 241.013 47.2449 237.081C46.433 236.504 64.8702 203.597 64.0791 202.998C63.2748 202.39 43.2425 234.091 42.4618 233.46C37.9644 229.83 33.8779 225.832 30.4106 221.436C29.9917 220.905 53.2637 191.523 52.8563 190.974C52.0907 189.942 27.6602 217.719 26.9346 216.626C23.8548 211.99 21.1301 206.839 18.7208 201.395C18.334 200.521 43.6075 179.838 43.2367 178.95C42.7174 177.705 16.5615 196.25 16.0729 194.982C14.1592 190.016 12.4783 184.889 11.0029 179.751C10.7727 178.95 33.0358 166.925 32.8155 166.123C32.5214 165.054 9.74779 175.207 9.47094 174.14C8.20131 169.245 7.11012 164.391 6.1736 159.71C5.9032 158.359 20.2346 151.41 19.9894 150.091C19.8392 149.282 5.10467 154.092 4.96357 153.297C3.95776 147.634 3.18031 142.343 2.58355 137.688C2.459 136.717 11.1121 139.781 11.0029 138.868C10.8811 137.849 1.99869 132.86 1.89476 131.919C1.00683 123.884 0.750244 118.827 0.750244 118.827Z" fill="#CEA6DC"/>
<path d="M49.6499 285.958C49.6499 285.958 50.7872 284.187 52.7404 281.486C52.8632 281.316 59.2021 283.977 59.2021 283.977C59.2021 283.977 53.3691 280.623 53.4987 280.447C54.0898 279.645 54.7396 278.78 55.4415 277.871C55.5459 277.736 62.6281 281.708 62.6281 281.708C62.6281 281.708 55.9436 277.224 56.0376 277.104C56.8015 276.128 57.6204 275.108 58.4866 274.064C58.625 273.897 66.6368 279.695 66.6368 279.695C66.6368 279.695 59.1855 273.229 59.3273 273.061C60.3631 271.839 61.4589 270.593 62.6029 269.355C62.6553 269.299 64.833 271.148 67.0134 273L71.4411 276.659C71.4411 276.659 63.1619 268.755 63.2839 268.626C64.5081 267.327 65.783 266.043 67.0949 264.812C67.1872 264.725 76.828 273.879 76.828 273.879C76.828 273.879 67.6893 264.259 67.8486 264.114C69.4698 262.633 71.1424 261.24 72.841 260.002C73.0006 259.886 82.2541 271.802 82.2541 271.802C82.2541 271.802 73.7227 259.374 73.9242 259.236C76.1483 257.713 78.4072 256.475 80.6452 255.67C80.9148 255.573 87.5541 270.012 87.5541 270.012C87.5541 270.012 82.1337 255.191 82.4746 255.101C85.2838 254.357 88.2847 254.128 91.3347 254.262C91.6041 254.274 94.6889 269.583 94.6889 269.583C94.6889 269.583 92.7297 254.347 93.0229 254.373C95.7766 254.609 98.5487 255.117 101.235 255.786C101.504 255.852 102.815 268.477 102.815 268.477C102.815 268.477 102.453 256.101 102.66 256.157C105.007 256.796 107.273 257.546 109.386 258.331C109.676 258.439 110.532 266.719 110.532 266.719C110.532 266.719 110.844 258.887 111.137 259.002C118.039 261.729 122.919 264.608 122.919 264.608C122.919 264.608 119.882 269.486 114.914 275.153C114.627 275.48 106.396 270.957 106.098 271.287C105.805 271.612 113.444 276.791 113.139 277.118C111.663 278.704 110.051 280.313 108.327 281.864C107.985 282.172 97.518 273.925 97.1672 274.228C96.9029 274.455 106.756 283.233 106.487 283.457C104.429 285.171 102.234 286.769 99.9352 288.126C99.5978 288.325 90.5394 276.468 90.1976 276.657C89.8501 276.848 98.219 289.085 97.8672 289.264C95.8405 290.299 93.745 291.128 91.6021 291.671C91.3433 291.736 84.3266 278.707 84.0629 278.766C83.5672 278.876 89.8187 292.065 89.3076 292.151C87.1383 292.517 84.838 292.673 82.4809 292.67C82.1024 292.67 78.5614 280.309 78.1803 280.3C77.6465 280.288 80.2715 292.625 79.734 292.598C77.6283 292.493 75.5007 292.279 73.4017 291.989C73.0742 291.944 72.2062 282.043 71.8803 281.994C71.4453 281.929 71.553 291.715 71.1216 291.645C69.1432 291.32 67.2078 290.938 65.3595 290.528C64.8258 290.41 64.5549 284.162 64.0368 284.04C63.7194 283.965 63.1497 290.016 62.8387 289.94C60.6225 289.398 58.5775 288.834 56.7922 288.306C56.4197 288.196 58.8943 285.581 58.5451 285.475C58.1557 285.356 54.9456 287.747 54.5875 287.634C51.5278 286.672 49.6499 285.958 49.6499 285.958Z" fill="#4043AF"/>
<path opacity="0.3" d="M25.6006 150.091C25.6006 150.091 70.492 179.751 102.557 239.874" stroke="white" stroke-width="0.5"/>
</svg>
